<svg width="90" height="90" viewBox="0 0 90 90" fill="none" xmlns="http://www.w3.org/2000/svg">
<path d="M89.1124 77.9296C75.9105 53.8124 62.703 29.6952 49.4983 5.578C49.058 4.74336 48.3982 4.04472 47.5901 3.55738C46.782 3.07005 45.8562 2.8125 44.9126 2.8125C43.9689 2.8125 43.0431 3.07005 42.235 3.55738C41.4269 4.04472 40.7671 4.74336 40.3268 5.578C27.1235 29.6952 13.909 53.8124 0.712721 77.9296C-1.33056 81.6547 1.27381 86.4838 5.29428 86.4838H84.5365C86.764 86.4838 88.2602 85.2843 89.0407 83.6572C90.0223 82.1075 90.2852 80.0502 89.118 77.9268" fill="#FFB02E"/>
<path d="M41.357 51.8359L40.2941 35.7006C40.0956 32.558 40 30.2999 40 28.93C40 27.0636 40.4782 25.6122 41.4371 24.5646C42.3996 23.5232 43.6645 23 45.2331 23C47.1258 23 48.3967 23.6704 49.0328 25.0026C49.6748 26.3434 50 28.2681 50 30.7829C50 32.2612 49.9211 33.7674 49.7633 35.2943L48.3405 51.9003C48.1863 53.8786 47.8575 55.3946 47.3517 56.4494C46.8424 57.5091 46.0031 58.0323 44.8302 58.0323C43.6442 58.0323 42.8097 57.5225 42.3529 56.5029C41.8831 55.4797 41.5543 53.9236 41.357 51.8359M45.0299 73.9996C43.6848 73.9996 42.512 73.5592 41.5065 72.6698C40.501 71.7841 40 70.5431 40 68.9493C40 67.5587 40.4782 66.37 41.4371 65.3955C42.3996 64.4148 43.5725 63.9282 44.9653 63.9282C46.3582 63.9282 47.5395 64.4148 48.5246 65.3955C49.499 66.37 50 67.5587 50 68.9493C50 70.5188 49.499 71.7573 48.5103 72.6528C47.5597 73.5342 46.3158 74.0156 45.0299 73.9996" fill="#1F2E35"/>
</svg>
